HIERARCHY
ROOT Hips
{
	OFFSET -0.179506 -22.333345 2.821913
	CHANNELS 6 Xposition Yposition Zposition Zrotation Yrotation Xrotation 
	JOINT LeftUpLeg
	{
		OFFSET 6.951974 -9.140623 -0.681533
		CHANNELS 3 Zrotation Yrotation Xrotation
		JOINT LeftLeg
		{
			OFFSET 3.427654 -37.519855 -0.449580
			CHANNELS 3 Zrotation Yrotation Xrotation
			JOINT LeftFoot
			{
				OFFSET -1.359570 -39.796059 -4.369333
				CHANNELS 3 Zrotation Yrotation Xrotation
				JOINT LeftToe
				{
					OFFSET 2.635814 -5.579078 11.928840
					CHANNELS 3 Zrotation Yrotation Xrotation
					End Site
					{
						OFFSET 0.000000 0.000000 0.000000
					}
				}
			}
		}
	}
	JOINT RightUpLeg
	{
		OFFSET -6.767048 -9.052170 -0.431982
		CHANNELS 3 Zrotation Yrotation Xrotation
		JOINT RightLeg
		{
			OFFSET -3.829005 -38.256897 -0.885003
			CHANNELS 3 Zrotation Yrotation Xrotation
			JOINT RightFoot
			{
				OFFSET 1.577377 -39.841461 -4.231180
				CHANNELS 3 Zrotation Yrotation Xrotation
				JOINT RightToe
				{
					OFFSET -2.537174 -4.814398 12.334795
					CHANNELS 3 Zrotation Yrotation Xrotation
					End Site
					{
						OFFSET 0.000000 0.000000 0.000000
					}
				}
			}
		}
	}
	JOINT Spine
	{
		OFFSET -0.253288 10.896323 -2.669631
		CHANNELS 3 Zrotation Yrotation Xrotation
		JOINT Spine1
		{
			OFFSET 0.548704 13.518043 0.109247
			CHANNELS 3 Zrotation Yrotation Xrotation
			JOINT Spine2
			{
				OFFSET 0.145701 5.292222 2.542457
				CHANNELS 3 Zrotation Yrotation Xrotation
				JOINT Neck
				{
					OFFSET -0.277840 21.387037 -4.285703
					CHANNELS 3 Zrotation Yrotation Xrotation
					JOINT Head
					{
						OFFSET 0.515184 6.496960 5.134897
						CHANNELS 3 Zrotation Yrotation Xrotation
						End Site
						{
							OFFSET 0.000000 0.000000 0.000000
						}
					}
				}
				JOINT LeftShoulder
				{
					OFFSET 7.884473 12.174932 -3.408961
					CHANNELS 3 Zrotation Yrotation Xrotation
					JOINT LeftArm
					{
						OFFSET 9.097692 3.046888 -0.886815
						CHANNELS 3 Zrotation Yrotation Xrotation
						JOINT LeftForeArm
						{
							OFFSET 25.961220 -1.277207 -2.745643
							CHANNELS 3 Zrotation Yrotation Xrotation
							JOINT LeftHand
							{
								OFFSET 24.923361 0.898606 -0.117091
								CHANNELS 3 Zrotation Yrotation Xrotation
								End Site
								{
									OFFSET 0.000000 0.000000 0.000000
								}
							}
						}
					}
				}
				JOINT RightShoulder
				{
					OFFSET -8.175920 11.883285 -3.861528
					CHANNELS 3 Zrotation Yrotation Xrotation
					JOINT RightArm
					{
						OFFSET -9.601238 3.255117 -0.914307
						CHANNELS 3 Zrotation Yrotation Xrotation
						JOINT RightForeArm
						{
							OFFSET -25.374195 -1.332924 -2.140099
							CHANNELS 3 Zrotation Yrotation Xrotation
							JOINT RightHand
							{
								OFFSET -25.529810 0.777228 -0.555919
								CHANNELS 3 Zrotation Yrotation Xrotation
								End Site
								{
									OFFSET 0.000000 0.000000 0.000000
								}
							}
						}
					}
				}
			}
		}
	}
}
MOTION
Frames: 13
Frame Time: 0.033333
237.011566 211.460007 93.383354 -51.429170 0.834864 89.937050 -0.079923 1.963160 1.699375 3.103634 -1.163535 -5.398397 -2.580945 9.192507 0.745037 nan nan nan -1.415211 -0.478202 1.501436 1.090722 1.868183 -3.713604 8.866375 -5.081989 2.179090 nan nan nan -2.694273 1.727260 -2.939018 4.306592 -3.313024 5.786187 0.047660 -0.197361 -2.119143 -0.651429 -4.833675 2.027680 6.999401 0.462224 0.092647 -16.274001 7.164515 0.613583 -59.462902 4.444815 27.550465 -9.718787 -29.019741 11.082290 12.725538 -11.051045 -30.763288 16.983692 -2.364934 -1.541353 53.413850 8.818313 17.802046 3.462027 68.775931 -20.810527 -16.725264 11.461239 -64.938937 
237.047562 211.473816 93.237892 -51.362068 0.911149 90.160297 0.046120 1.976218 1.352959 3.089854 -1.146814 -5.455780 -2.953642 9.088616 1.225238 nan nan nan -1.304618 -0.436857 1.139349 1.051654 1.773940 -3.531525 8.912373 -5.194172 2.115386 nan nan nan -2.430793 1.613897 -2.857231 4.150152 -3.292409 5.105471 0.031009 -0.222448 -1.652559 -0.623368 -4.789764 2.138063 6.907787 0.564344 -0.152070 -15.932597 7.105692 0.473149 -60.023889 4.440068 27.003844 -8.422100 -27.876128 9.653403 12.797159 -10.619518 -30.803513 16.437257 -2.272360 -1.516763 53.699408 9.004923 17.842596 4.826961 68.777058 -18.187855 -16.804952 11.203925 -63.662673 
237.073486 211.485504 93.158638 -51.322609 0.958369 90.318646 0.104283 1.948018 1.137051 3.088150 -1.095650 -5.467127 -3.103791 9.063477 1.454818 nan nan nan -1.235130 -0.386934 0.905958 1.011907 1.736070 -3.428039 8.925040 -5.259293 2.129468 nan nan nan -2.276108 1.565445 -2.790684 4.055329 -3.258734 4.613662 0.018495 -0.231683 -1.315041 -0.570413 -4.711325 2.115358 6.848030 0.598225 -0.274070 -15.694039 7.113500 0.332650 -60.391523 4.324014 26.631732 -7.413775 -27.283804 8.345577 12.940412 -10.316568 -31.113554 16.138134 -2.279674 -1.522420 53.984392 9.027935 17.870701 4.962009 68.839231 -17.358679 -16.927521 10.956277 -63.111252 
237.050522 211.409042 93.220863 -51.404342 1.092885 90.108943 0.316686 1.411770 1.544704 3.046322 1.795882 -5.407181 -4.203048 6.613393 1.025812 nan nan nan -1.193860 0.083309 1.403129 1.160418 -0.524201 -3.904572 8.136065 -3.323494 3.495718 nan nan nan -2.126291 1.989516 -3.267534 3.919178 -3.095969 5.928777 -0.018130 -0.274554 -1.515769 1.046287 -3.549682 1.375461 6.083964 -1.260159 -0.801594 -16.666791 8.529631 -2.104263 -66.449639 -3.319053 24.328471 26.628942 -64.866630 -39.976221 5.288078 -20.572413 -52.606645 15.696809 -4.177610 -1.915182 58.256860 8.781272 18.655910 -8.623259 68.034033 -29.470080 -5.722117 15.164180 -57.669209 
237.056534 211.401154 93.254883 -51.422636 1.109800 90.060607 0.332646 1.396312 1.603547 3.062262 1.905123 -5.370041 -4.154379 6.528360 1.087670 nan nan nan -1.189977 0.087516 1.469615 1.185074 -0.649185 -3.945894 8.178819 -3.261923 3.585570 nan nan nan -2.096058 2.005908 -3.237349 3.909189 -3.091594 5.929731 -0.041611 -0.256624 -1.443864 1.048138 -3.432244 1.517896 6.099714 -1.318407 -1.068052 -16.418284 8.516110 -2.008218 -66.721222 -3.309504 24.348973 27.102418 -64.941535 -40.373035 4.788162 -20.798661 -52.727059 15.486759 -4.207567 -1.942677 58.655044 8.647182 18.697944 -9.088302 68.368853 -29.681106 -5.402766 15.230328 -57.108389 
237.041351 211.373840 93.236954 -51.350984 1.136861 89.922679 0.339136 1.466266 1.732672 3.218462 2.164051 -5.339713 -4.710914 6.033139 1.412311 nan nan nan -1.234653 0.009204 1.710401 1.255133 -1.162788 -4.039217 8.622205 -2.859138 3.684814 nan nan nan -2.167780 2.105499 -3.571614 3.997921 -3.188444 6.815180 -0.028811 -0.178399 -2.163760 0.398161 -3.491672 3.768486 6.505434 -1.628662 -1.889244 -15.391159 8.174908 -0.808470 -67.834775 -4.170733 23.723288 25.071065 -64.263006 -38.554865 3.368823 -21.592164 -52.644370 14.675555 -4.307244 -0.988021 59.666931 9.011587 17.383606 -8.140371 68.938283 -28.953847 -4.678038 15.577702 -54.540468 
237.052765 211.359406 93.236099 -51.285777 1.163252 89.849637 0.351288 1.461981 1.804954 3.300556 2.088241 -5.342809 -4.931806 6.047332 1.564594 nan nan nan -1.265958 -0.208861 1.829627 1.270700 -1.107802 -4.108108 8.887459 -2.835106 3.833584 nan nan nan -2.191597 2.147527 -3.498536 4.080507 -3.241272 6.839231 0.015454 -0.053138 -2.127830 0.040900 -4.020070 3.803973 6.659390 -1.355879 -2.050901 -15.421065 7.971388 -0.556274 -68.636491 -4.687377 22.783983 25.691484 -64.253063 -40.111908 2.498764 -20.775079 -52.154961 14.973522 -4.643747 -0.708153 59.292577 9.799853 16.290878 -1.399743 68.867008 -19.291166 -3.367089 14.797763 -45.074675 
237.079285 211.365067 93.225388 -51.278615 1.111430 89.916313 0.286402 1.466070 1.674569 3.319231 2.170265 -5.251548 -4.954044 5.999858 1.450567 nan nan nan -1.369577 -0.228003 1.731479 1.252903 -1.215760 -4.087666 8.885342 -2.763556 3.771326 nan nan nan -2.192272 2.122838 -3.501674 4.046865 -3.218332 6.832463 0.010747 -0.098864 -2.187921 0.018052 -3.999408 3.836045 6.679556 -1.406387 -2.063790 -15.429191 8.161260 -0.620313 -68.657214 -4.497036 22.852045 25.930238 -64.646200 -40.559672 3.525458 -21.049034 -52.143381 14.908912 -4.639226 -0.732119 59.490889 9.955867 16.500532 0.010024 68.840108 -18.756967 -4.012813 15.843019 -46.886455 
237.109192 211.376053 93.209282 -51.272505 1.054044 90.023196 0.210753 1.452595 1.507883 3.353584 2.326855 -5.207413 -4.938678 5.967305 1.303118 nan nan nan -1.451135 -0.215855 1.588343 1.184195 -1.304455 -4.077871 8.944832 -2.661552 3.687045 nan nan nan -2.226403 2.086167 -3.522843 4.020339 -3.169473 6.729276 0.016897 -0.147837 -2.179406 0.125359 -3.906316 3.780746 6.583371 -1.505331 -1.986607 -15.412997 8.290022 -0.728778 -68.723790 -4.258163 23.006656 26.816264 -65.134592 -41.386592 5.693653 -21.490961 -52.244102 14.798168 -4.657337 -0.777397 59.654826 9.914848 16.805091 0.330787 68.882479 -18.575055 -5.624861 16.257275 -47.844736 
237.129639 211.384323 93.186829 -51.286047 1.006368 90.067652 0.138610 1.390804 1.534247 3.376960 2.367512 -5.366952 -4.850395 5.961816 1.340796 nan nan nan -1.499229 -0.166253 1.531866 1.170887 -1.199456 -4.151466 9.087928 -2.615556 3.775756 nan nan nan -2.261083 2.083061 -3.472508 4.004978 -3.134593 6.563440 0.009703 -0.149306 -2.093845 0.187000 -3.989097 3.609799 6.536136 -1.508824 -1.868186 -15.338654 8.326259 -0.720728 -68.802047 -4.189044 23.149176 27.124867 -65.265341 -41.593197 5.980879 -21.476827 -52.447100 14.754239 -4.794488 -0.807524 59.691323 9.818349 16.950894 -0.064869 69.080699 -18.461669 -5.367773 16.063839 -47.680338 
237.151993 211.387207 93.165520 -51.249616 1.006762 90.065166 0.123727 1.300170 1.611271 3.368238 2.354497 -5.514083 -4.848176 5.870482 1.491949 nan nan nan -1.498930 -0.140361 1.571640 1.193449 -1.150260 -4.275105 9.161935 -2.562508 3.908928 nan nan nan -2.218603 2.066107 -3.377673 3.964617 -3.115394 6.456604 0.017157 -0.167716 -2.050540 0.254383 -4.074231 3.528858 6.412193 -1.529477 -1.875084 -15.271784 8.328809 -0.647651 -69.133315 -4.159432 23.135773 28.083619 -65.106146 -42.211960 5.046971 -21.554335 -52.216210 14.673578 -4.886027 -0.799548 59.749343 9.768213 16.972536 -0.885893 69.200477 -18.404509 -3.207146 15.954535 -47.117731 
237.167633 211.391724 93.161446 -51.176713 1.046399 90.064419 0.166340 1.283635 1.553386 3.382328 2.270171 -5.421982 -4.854315 5.843957 1.483799 nan nan nan -1.451507 -0.201403 1.601884 1.165841 -1.176058 -4.301653 9.056707 -2.645793 3.842292 nan nan nan -2.152104 2.042792 -3.305212 3.957020 -3.129848 6.362899 0.003312 -0.174184 -2.006233 0.261831 -4.175084 3.526482 6.365067 -1.543107 -1.887401 -15.187377 8.302768 -0.552864 -69.272850 -4.168206 23.233296 28.429751 -65.174344 -42.299764 5.284978 -21.335420 -52.560657 14.564783 -4.981840 -0.801754 59.860596 9.750977 16.976843 -1.253815 69.170241 -18.276891 -2.919017 15.358628 -46.748637 
237.181152 211.465637 93.131653 -51.435315 1.039384 90.106771 0.222888 1.507842 1.422440 3.368237 2.493036 -5.305566 -5.070138 5.784460 1.428725 nan nan nan -1.404311 -0.130899 1.331119 1.024037 -1.264523 -3.968236 9.073126 -2.573987 3.682886 nan nan nan -2.258982 2.078358 -3.171786 3.987225 -2.910643 6.268361 0.027820 -0.097041 -2.010231 0.452453 -4.021375 3.350918 6.342515 -1.781094 -1.810923 -14.803711 8.423411 -0.499571 -69.587945 -4.346725 23.364616 27.810635 -65.311554 -41.804814 6.295369 -21.304535 -52.684127 14.424078 -5.211605 -0.682696 60.163037 9.874609 16.854289 -1.301856 69.292341 -18.341617 -4.544384 14.852760 -46.356055 
